<svg version="1.1" id="Layer_1" xmlns="http://www.w3.org/2000/svg" xmlns:xlink="http://www.w3.org/1999/xlink" x="0px" y="0px"
	 width="100%" viewBox="0 0 166 58" enable-background="new 0 0 166 58" xml:space="preserve">
<path fill="#FAFBFB" opacity="1.000000" stroke="none" 
	d="
M89.000000,59.000000 
	C59.704788,59.000000 30.409578,59.000000 1.057183,59.000000 
	C1.057183,39.730049 1.057183,20.459900 1.057183,1.094872 
	C56.333241,1.094872 111.666595,1.094872 166.999969,1.094371 
	C167.000000,9.083460 167.000000,17.073050 166.687073,25.384972 
	C165.598312,24.475965 164.822510,23.244629 163.897888,21.628857 
	C162.068314,20.809963 160.388672,20.002098 158.706573,19.996950 
	C132.649429,19.917227 106.591927,19.922911 80.534721,19.990520 
	C79.044235,19.994390 77.555573,20.700943 75.955635,21.389751 
	C76.204163,22.829391 76.563126,23.959745 77.049057,25.385124 
	C77.788826,25.738276 78.401604,25.796402 79.240662,25.937477 
	C79.466942,26.020428 79.929367,26.155542 79.990799,26.515104 
	C80.160767,27.348566 80.269318,27.822464 80.066803,28.578503 
	C79.836708,36.839230 79.917679,44.817814 80.316376,52.964081 
	C82.404945,54.109608 84.175797,55.087460 86.077209,56.348709 
	C87.138512,57.421406 88.069260,58.210705 89.000000,59.000000 
M70.849167,21.482275 
	C69.953583,20.881731 69.058006,20.281185 68.014107,19.085464 
	C68.023376,18.473637 68.032646,17.861809 68.474396,16.777348 
	C67.981537,15.432233 67.488678,14.087117 66.648148,12.160971 
	C65.564133,10.601804 64.359543,9.111481 63.421658,7.468881 
	C61.572037,4.229498 59.133629,3.625481 55.400406,5.428740 
	C57.055698,7.487067 58.474995,9.251943 60.012154,11.668815 
	C60.422539,12.450843 60.832924,13.232872 61.216450,14.435168 
	C61.258118,14.741254 61.419334,14.958705 61.718948,15.898106 
	C61.738739,17.528484 61.758526,19.158865 60.868965,20.748701 
	C41.803089,20.748701 22.737211,20.748701 3.671333,20.748701 
	C3.039254,21.219774 2.407175,21.690849 1.775096,22.161922 
	C8.874012,24.396503 6.611043,30.690546 8.474335,34.209015 
	C7.215797,36.657700 4.696045,39.304771 5.095990,41.392517 
	C5.528633,43.650948 8.686612,45.387291 11.238585,47.902725 
	C17.379974,50.454460 23.263927,48.143906 29.854288,47.188480 
	C32.928703,47.937382 33.504761,46.335526 33.214664,43.735626 
	C32.701256,39.134319 33.363995,34.702499 37.219627,31.762423 
	C38.586750,30.719938 41.333809,30.395016 42.901749,31.052370 
	C44.163761,31.581461 45.584625,34.376003 45.206154,35.652996 
	C44.260571,38.843491 42.331440,41.742493 40.586540,45.172119 
	C41.297855,45.814919 42.629574,47.018372 44.405094,48.743885 
	C47.410748,50.718437 49.429611,49.918556 50.788692,46.649990 
	C51.192230,45.679489 52.127235,44.929970 53.103500,44.654205 
	C54.050644,45.494793 54.997784,46.335381 56.378498,47.698875 
	C57.357395,48.071651 58.336292,48.444431 59.639931,48.940872 
	C59.835716,47.391998 59.985977,46.203285 60.610519,44.994293 
	C60.610519,44.994293 61.084496,44.967785 61.689358,45.142380 
	C62.445168,45.450466 63.200981,45.758553 63.871765,46.045895 
	C63.871765,46.045895 63.844730,46.129135 64.192055,46.647369 
	C65.129654,47.059753 66.067245,47.472141 67.467896,48.470070 
	C68.282112,47.730621 69.750496,47.038712 69.808228,46.244289 
	C70.322334,39.169651 70.587196,32.076908 70.941139,24.278505 
	C70.927185,23.567434 70.913223,22.856365 70.849167,21.482275 
M56.756046,19.199516 
	C57.388966,19.097723 58.487885,19.155012 58.585072,18.870331 
	C60.100212,14.432081 55.023327,9.007106 49.188869,9.600202 
	C50.235298,11.488974 50.971989,13.262074 52.101650,14.733470 
	C53.240368,16.216665 54.769318,17.400261 56.756046,19.199516 
z"/>
<path fill="#FAFBFB" opacity="1.000000" stroke="none" 
	d="
M124.000000,59.000000 
	C112.979103,59.000000 101.958214,59.000000 90.430893,58.533585 
	C89.931793,53.908775 89.469475,49.674362 90.125565,45.620979 
	C90.508751,43.253624 92.679314,41.175579 94.056747,39.006149 
	C94.067741,39.044922 94.001434,39.090740 94.128426,39.295082 
	C94.480621,39.744770 94.756546,39.899967 95.395767,40.098961 
	C97.077286,40.865398 98.446243,41.497894 99.893112,42.486687 
	C101.447945,43.284897 102.910538,44.000748 104.406487,44.078995 
	C105.532082,44.137878 106.700462,43.378883 107.807976,43.360176 
	C106.359612,48.169041 107.894676,50.439999 114.116272,53.319824 
	C115.963585,54.531696 117.733521,55.355938 119.445328,56.287064 
	C120.996490,57.130814 122.484276,58.091095 124.000000,59.000000 
z"/>
<path fill="#FAFBFB" opacity="1.000000" stroke="none" 
	d="
M148.000000,59.000000 
	C142.977905,59.000000 137.955811,59.000000 132.471771,58.628387 
	C132.971527,57.780350 133.893341,57.184723 134.901611,56.847511 
	C140.104233,55.107521 140.441895,54.527252 139.298492,48.775616 
	C138.259506,49.145466 137.220276,49.514614 136.111542,49.484421 
	C135.935379,47.414246 135.828735,45.743416 135.651474,42.966042 
	C133.546707,44.763653 132.254501,45.867283 130.712463,46.779015 
	C129.913559,45.748898 129.364487,44.910679 128.470337,44.025703 
	C127.444756,42.649837 126.764221,41.320724 126.064064,39.974754 
	C126.044449,39.957897 126.007454,39.921749 125.848511,39.629097 
	C124.847931,39.050049 124.006279,38.763649 122.396324,38.215809 
	C127.045547,38.215809 130.854507,38.215809 134.897232,38.215809 
	C134.221893,35.280842 133.576813,32.477318 132.931717,29.673798 
	C133.376022,29.211628 133.820328,28.749458 134.264633,28.287289 
	C135.876816,29.230181 137.488998,30.173073 139.044693,31.494637 
	C138.661346,34.964092 140.708359,35.082363 143.234711,35.190777 
	C144.797958,36.153027 145.949448,37.218536 147.300278,37.630722 
	C148.792786,38.086140 150.467972,37.942921 151.971222,38.408165 
	C149.260208,43.217331 146.641525,47.678768 143.763046,52.218918 
	C143.593384,52.890507 143.683517,53.483379 143.811905,54.085724 
	C143.850159,54.095196 143.845871,54.173908 144.069366,54.463539 
	C145.682587,54.984989 147.072311,55.216808 148.488312,55.453014 
	C148.308350,56.760227 148.154175,57.880112 148.000000,59.000000 
z"/>
<path fill="#FAFBFB" opacity="1.000000" stroke="none" 
	d="
M167.000000,29.000000 
	C167.000000,38.896954 167.000000,48.793903 167.000000,59.000000 
	C162.654297,59.000000 158.301285,59.000000 153.410873,58.624542 
	C156.499161,50.133053 160.124817,42.017025 163.299515,34.910500 
	C162.329483,32.449657 161.702484,30.859068 161.312103,29.217882 
	C161.548721,29.167286 161.998566,28.988819 162.415451,28.980095 
	C164.221558,28.980911 165.610779,28.990456 167.000000,29.000000 
z"/>
<path fill="#BEC1C3" opacity="1.000000" stroke="none" 
	d="
M167.000000,28.625000 
	C165.610779,28.990456 164.221558,28.980911 162.303513,28.814188 
	C161.541626,28.860834 161.308563,29.064659 161.075500,29.268482 
	C161.702484,30.859068 162.329483,32.449657 163.299515,34.910500 
	C160.124817,42.017025 156.499161,50.133053 152.936737,58.624542 
	C151.611115,59.000000 150.222214,59.000000 148.416656,59.000000 
	C148.154175,57.880112 148.308350,56.760227 148.488312,55.453014 
	C147.072311,55.216808 145.682587,54.984989 144.507904,54.466221 
	C147.284241,54.210411 149.551086,54.544361 150.763962,51.031506 
	C152.448792,46.151772 155.102646,41.609207 157.299133,36.902454 
	C158.398331,34.547009 159.403259,32.147564 160.873688,28.807476 
	C155.300674,28.807476 151.163879,28.807476 147.062790,28.525173 
	C147.719131,27.562681 148.339767,26.882488 149.395004,26.139168 
	C151.876648,26.030403 153.923706,25.984770 156.219467,26.224911 
	C158.311783,26.005259 160.155380,25.499832 162.155518,24.709156 
	C162.617294,23.645668 162.922546,22.867430 163.431427,22.063824 
	C163.635071,22.038454 164.046692,22.013292 164.046692,22.013292 
	C164.822510,23.244629 165.598312,24.475965 166.687073,25.853649 
	C167.000000,26.750000 167.000000,27.500000 167.000000,28.625000 
z"/>
<path fill="#B9BDC0" opacity="1.000000" stroke="none" 
	d="
M94.045753,38.967377 
	C92.679314,41.175579 90.508751,43.253624 90.125565,45.620979 
	C89.469475,49.674362 89.931793,53.908775 89.962234,58.533585 
	C90.000000,59.000000 89.500000,59.000000 89.250000,59.000000 
	C88.069260,58.210705 87.138512,57.421406 86.215912,55.960960 
	C86.457848,53.360165 86.735931,51.434643 86.916054,49.499996 
	C87.270157,45.696705 87.155678,41.793411 88.000664,38.106979 
	C88.976479,33.849716 94.138489,31.546379 99.603661,32.941765 
	C97.663757,34.346134 96.067093,35.320114 94.723160,36.566586 
	C94.202774,37.049232 94.254608,38.148838 94.045753,38.967377 
z"/>
<path fill="#C2C3C3" opacity="1.000000" stroke="none" 
	d="
M136.181046,49.883759 
	C137.220276,49.514614 138.259506,49.145466 139.298492,48.775616 
	C140.441895,54.527252 140.104233,55.107521 134.901611,56.847511 
	C133.893341,57.184723 132.971527,57.780350 132.004913,58.628387 
	C129.629440,59.000000 127.258888,59.000000 124.444168,59.000000 
	C122.484276,58.091095 120.996490,57.130814 119.445328,56.287064 
	C117.733521,55.355938 115.963585,54.531696 114.480759,53.388718 
	C115.480743,53.123863 116.218933,53.131195 117.184265,53.455425 
	C118.805267,54.113068 120.196671,54.464226 121.593422,54.792629 
	C126.017639,55.832848 134.133652,53.097721 136.181046,49.883759 
z"/>
<path fill="#C12544" opacity="1.000000" stroke="none" 
	d="
M116.957115,53.138527 
	C116.218933,53.131195 115.480743,53.123863 114.378067,53.047642 
	C107.894676,50.439999 106.359612,48.169041 107.874413,43.149616 
	C107.982666,42.562843 107.999542,42.120113 108.372208,42.076134 
	C109.380943,41.125504 110.758469,39.939968 110.538551,39.355286 
	C108.298950,33.401035 108.307945,33.268032 115.281616,30.890669 
	C116.536400,30.544781 117.481125,30.153440 118.903778,29.831352 
	C121.230682,29.187199 124.579559,28.631662 124.674088,27.733595 
	C125.130951,23.392944 121.415215,25.121384 119.404808,25.093508 
	C107.679214,24.930927 95.950012,24.979074 84.222610,25.050768 
	C82.484962,25.061392 80.750389,25.574106 79.014389,25.854527 
	C78.401604,25.796402 77.788826,25.738276 77.082703,24.963467 
	C78.689522,23.493587 80.386017,22.093632 82.090408,22.083942 
	C108.804276,21.932079 135.519165,21.959499 162.483810,21.971128 
	C162.898468,22.027468 163.063141,22.058332 163.227798,22.089195 
	C162.922546,22.867430 162.617294,23.645668 161.750793,24.719879 
	C159.449951,25.323614 157.710358,25.631376 155.970749,25.939137 
	C153.923706,25.984770 151.876648,26.030403 149.039307,26.069107 
	C147.256302,26.339636 146.263596,26.617092 145.270905,26.894547 
	C145.856308,27.532187 146.441696,28.169830 147.027084,28.807474 
	C151.163879,28.807476 155.300674,28.807476 160.873688,28.807476 
	C159.403259,32.147564 158.398331,34.547009 157.299133,36.902454 
	C155.102646,41.609207 152.448792,46.151772 150.763962,51.031506 
	C149.551086,54.544361 147.284241,54.210411 144.284424,54.176590 
	C143.845871,54.173908 143.850159,54.095196 143.848358,53.761902 
	C143.905334,52.999142 143.964096,52.569675 144.022858,52.140205 
	C146.641525,47.678768 149.260208,43.217331 152.256531,38.190067 
	C152.995346,36.246006 153.356506,34.867771 153.886414,32.845570 
	C149.879944,33.634190 146.395401,34.320076 142.910843,35.005966 
	C140.708359,35.082363 138.661346,34.964092 139.366943,31.241966 
	C139.745682,29.193619 139.745682,27.776615 139.745682,26.326233 
	C136.350128,26.326233 133.277573,26.326233 129.731506,26.326233 
	C130.108521,28.131865 130.345779,29.548754 130.711075,30.931822 
	C131.022079,32.109337 131.480499,33.247910 131.873703,34.403709 
	C130.410309,34.687351 128.958282,35.081791 127.481339,35.233234 
	C123.517471,35.639687 119.542946,35.942188 114.759415,36.356392 
	C118.324554,41.824242 122.565475,39.146500 126.007454,39.921749 
	C126.007454,39.921749 126.044449,39.957897 126.078102,40.396072 
	C126.461525,45.874496 122.129395,43.895142 119.856941,44.944519 
	C118.026436,45.789814 116.061646,46.344307 114.156433,47.027824 
	C115.142120,48.607796 116.127808,50.187771 117.072304,52.110199 
	C117.006439,52.681278 116.981773,52.909901 116.957115,53.138527 
z"/>
<path fill="#BC2846" opacity="1.000000" stroke="none" 
	d="
M10.655914,47.351345 
	C8.686612,45.387291 5.528633,43.650948 5.095990,41.392517 
	C4.696045,39.304771 7.215797,36.657700 8.474335,34.209015 
	C6.611043,30.690546 8.874012,24.396503 1.775096,22.161922 
	C2.407175,21.690849 3.039254,21.219774 3.671333,20.748701 
	C22.737211,20.748701 41.803089,20.748701 61.389847,21.163589 
	C61.939152,22.382465 61.967571,23.186457 61.527817,23.996899 
	C46.431950,24.009861 31.804043,23.981327 17.176851,24.070366 
	C15.483143,24.080677 13.793410,24.743725 12.226900,25.444481 
	C15.233675,26.567616 18.115383,27.350412 21.160954,28.411655 
	C22.592117,30.139977 23.859419,31.589855 25.074532,33.495033 
	C24.972967,37.632877 24.923590,41.315426 24.527351,45.004730 
	C23.419353,45.417316 22.658218,45.823143 21.485464,46.165916 
	C17.601202,46.519024 14.128558,46.935184 10.655914,47.351345 
M11.722803,43.149151 
	C14.464636,41.982567 17.206470,40.815987 19.948303,39.649403 
	C19.761757,39.180435 19.575209,38.711468 19.388662,38.242500 
	C14.928682,37.992455 10.280044,37.029079 6.385957,42.728962 
	C8.389562,43.101112 9.745445,43.352955 11.722803,43.149151 
z"/>
<path fill="#BC2745" opacity="1.000000" stroke="none" 
	d="
M94.056747,39.006149 
	C94.254608,38.148838 94.202774,37.049232 94.723160,36.566586 
	C96.067093,35.320114 97.663757,34.346134 99.603661,32.941765 
	C94.138489,31.546379 88.976479,33.849716 88.000664,38.106979 
	C87.155678,41.793411 87.270157,45.696705 86.916054,49.499996 
	C86.735931,51.434643 86.457848,53.360165 86.085342,55.677559 
	C84.175797,55.087460 82.404945,54.109608 80.344810,52.512722 
	C80.055527,44.669468 80.055527,37.445251 80.055527,30.141937 
	C82.914246,30.141937 84.881676,30.141937 87.088020,30.390526 
	C91.907188,30.460419 96.487442,30.281721 101.210800,30.390198 
	C102.284821,32.061176 103.215729,33.444977 104.088074,35.213081 
	C102.624741,37.775055 101.219971,39.952721 99.815201,42.130386 
	C98.446243,41.497894 97.077286,40.865398 95.310501,39.852524 
	C94.608925,39.345009 94.305183,39.217873 94.001434,39.090740 
	C94.001434,39.090740 94.067741,39.044922 94.056747,39.006149 
z"/>
<path fill="#BA2A48" opacity="1.000000" stroke="none" 
	d="
M25.126720,33.039734 
	C23.859419,31.589855 22.592117,30.139977 21.574493,28.348953 
	C26.596745,27.974075 31.699236,28.971638 36.038517,27.583473 
	C39.571629,26.453207 42.117702,26.343872 45.213821,28.364342 
	C47.236725,31.710575 49.103935,34.767563 50.794472,38.153877 
	C49.597641,42.548725 48.467499,46.539070 43.961296,48.221821 
	C42.629574,47.018372 41.297855,45.814919 40.586540,45.172119 
	C42.331440,41.742493 44.260571,38.843491 45.206154,35.652996 
	C45.584625,34.376003 44.163761,31.581461 42.901749,31.052370 
	C41.333809,30.395016 38.586750,30.719938 37.219627,31.762423 
	C33.363995,34.702499 32.701256,39.134319 33.214664,43.735626 
	C33.504761,46.335526 32.928703,47.937382 29.278139,46.721645 
	C28.461296,42.702473 28.222692,39.149994 27.979021,35.597862 
	C27.857430,33.825325 28.240499,31.480196 25.126720,33.039734 
z"/>
<path fill="#B7304A" opacity="1.000000" stroke="none" 
	d="
M61.700108,15.087523 
	C61.419334,14.958705 61.258118,14.741254 61.426701,14.012616 
	C61.056068,12.732315 60.475182,11.874566 59.894295,11.016817 
	C58.474995,9.251943 57.055698,7.487067 55.400406,5.428740 
	C59.133629,3.625481 61.572037,4.229498 63.421658,7.468881 
	C64.359543,9.111481 65.564133,10.601804 66.780144,12.855019 
	C67.288727,14.782705 67.665321,16.016344 68.041916,17.249981 
	C68.032646,17.861809 68.023376,18.473637 67.979561,19.707829 
	C68.218567,20.915337 68.492111,21.500481 68.642120,22.439217 
	C67.995544,24.614609 67.105164,26.419659 67.021194,28.261475 
	C66.805115,33.000809 66.878662,37.757786 66.974022,42.504955 
	C67.019821,44.784966 66.648285,46.435699 63.844730,46.129135 
	C63.844730,46.129135 63.871765,46.045895 63.775196,45.658463 
	C63.447079,36.857357 63.276421,28.441191 62.932102,20.032133 
	C62.864044,18.369902 62.128063,16.735018 61.700108,15.087523 
z"/>
<path fill="#BEBFBF" opacity="1.000000" stroke="none" 
	d="
M101.067688,30.103022 
	C96.487442,30.281721 91.907188,30.460419 87.006508,30.031242 
	C84.583336,29.047699 82.480606,28.672029 80.377869,28.296362 
	C80.269318,27.822464 80.160767,27.348566 80.264755,26.457783 
	C80.661041,26.073439 80.844788,26.105980 81.271027,26.374886 
	C82.998260,26.466450 84.483017,26.321650 86.430115,26.121029 
	C90.931679,26.102652 94.970894,26.140097 99.106171,26.313641 
	C99.202232,26.449739 99.651367,26.518778 99.651367,26.518778 
	C99.651367,26.518778 99.990257,26.175003 100.455971,26.118172 
	C106.958023,26.098475 112.994362,26.135611 119.251480,26.388884 
	C120.335724,26.872278 121.199181,27.139532 122.291565,27.477644 
	C120.920181,28.039957 119.950523,28.437550 118.826996,29.057831 
	C118.590706,29.441048 118.508278,29.601574 118.425850,29.762100 
	C117.481125,30.153440 116.536400,30.544781 115.202972,30.496975 
	C110.232079,30.072891 105.649887,30.087957 101.067688,30.103022 
z"/>
<path fill="#9A223A" opacity="1.000000" stroke="none" 
	d="
M162.233810,21.945652 
	C135.519165,21.959499 108.804276,21.932079 82.090408,22.083942 
	C80.386017,22.093632 78.689522,23.493587 76.955719,24.668442 
	C76.563126,23.959745 76.204163,22.829391 76.415855,21.328123 
	C103.867851,20.943586 130.749222,20.913040 157.630463,20.960392 
	C159.165482,20.963095 160.699387,21.602547 162.233810,21.945652 
z"/>
<path fill="#B4BCBE" opacity="1.000000" stroke="none" 
	d="
M162.483810,21.971127 
	C160.699387,21.602547 159.165482,20.963095 157.630463,20.960392 
	C130.749222,20.913040 103.867851,20.943586 76.526283,21.018837 
	C77.555573,20.700943 79.044235,19.994390 80.534721,19.990520 
	C106.591927,19.922911 132.649429,19.917227 158.706573,19.996950 
	C160.388672,20.002098 162.068314,20.809963 163.897888,21.628857 
	C164.046692,22.013292 163.635071,22.038454 163.431427,22.063824 
	C163.063141,22.058332 162.898468,22.027468 162.483810,21.971127 
z"/>
<path fill="#C92344" opacity="1.000000" stroke="none" 
	d="
M55.944927,47.175968 
	C54.997784,46.335381 54.050644,45.494793 53.043648,43.934776 
	C52.931549,41.459961 52.879307,39.704578 52.886719,37.502380 
	C52.998638,34.044086 53.050903,31.032608 53.482655,28.009007 
	C54.873569,28.011133 55.884995,28.025385 56.921417,28.464664 
	C57.287708,34.135483 57.723938,39.378586 57.872459,44.629829 
	C57.895927,45.459709 56.620052,46.326332 55.944927,47.175968 
z"/>
<path fill="#A5B0B4" opacity="1.000000" stroke="none" 
	d="
M25.074532,33.495033 
	C28.240499,31.480196 27.857430,33.825325 27.979021,35.597862 
	C28.222692,39.149994 28.461296,42.702473 28.954533,46.603088 
	C23.263927,48.143906 17.379974,50.454460 10.947250,47.627037 
	C14.128558,46.935184 17.601202,46.519024 21.713490,46.424133 
	C23.193497,46.162930 24.033855,45.580452 24.874214,44.997974 
	C24.923590,41.315426 24.972967,37.632877 25.074532,33.495033 
z"/>
<path fill="#6C434C" opacity="1.000000" stroke="none" 
	d="
M81.028542,26.138523 
	C80.844788,26.105980 80.661041,26.073439 80.203323,26.098221 
	C79.929367,26.155542 79.466942,26.020428 79.240662,25.937477 
	C80.750389,25.574106 82.484962,25.061392 84.222610,25.050768 
	C95.950012,24.979074 107.679214,24.930927 119.404808,25.093508 
	C121.415215,25.121384 125.130951,23.392944 124.674088,27.733595 
	C124.579559,28.631662 121.230682,29.187199 118.903778,29.831352 
	C118.508278,29.601574 118.590706,29.441048 119.231453,29.079758 
	C121.173775,28.638653 122.557770,28.398312 123.941765,28.157972 
	C123.908920,27.598759 123.876076,27.039545 123.843224,26.480330 
	C122.239052,26.377802 120.634872,26.275274 119.030701,26.172745 
	C112.994362,26.135611 106.958023,26.098475 100.210800,26.068951 
	C99.336639,26.110220 99.173370,26.143881 99.010101,26.177540 
	C94.970894,26.140097 90.931679,26.102652 86.022934,26.050600 
	C83.778442,26.070168 82.403488,26.104345 81.028542,26.138523 
z"/>
<path fill="#C3C9D0" opacity="1.000000" stroke="none" 
	d="
M70.925522,24.989500 
	C70.587196,32.076908 70.322334,39.169651 69.808228,46.244289 
	C69.750496,47.038712 68.282112,47.730621 67.435455,47.817081 
	C67.593735,41.062382 67.828934,34.961555 67.950920,28.858469 
	C67.993301,26.738054 67.893066,24.717010 70.925522,24.989500 
z"/>
<path fill="#A03A49" opacity="1.000000" stroke="none" 
	d="
M61.709526,15.492814 
	C62.128063,16.735018 62.864044,18.369902 62.932102,20.032133 
	C63.276421,28.441191 63.447079,36.857357 63.817711,45.668839 
	C63.200981,45.758553 62.445168,45.450466 61.347900,44.591095 
	C61.165501,38.121712 61.324551,32.203609 61.625576,26.059128 
	C61.812866,25.660469 61.858185,25.488188 61.938229,24.985350 
	C61.980637,24.433346 61.988316,24.211895 61.995991,23.990446 
	C61.967571,23.186457 61.939152,22.382465 61.844524,21.183861 
	C61.758526,19.158865 61.738739,17.528484 61.709526,15.492814 
z"/>
<path fill="#C1C6CB" opacity="1.000000" stroke="none" 
	d="
M56.161713,47.437424 
	C56.620052,46.326332 57.895927,45.459709 57.872459,44.629829 
	C57.723938,39.378586 57.287708,34.135483 57.190842,28.352299 
	C57.948383,27.541819 58.461494,27.268732 58.965790,27.421368 
	C59.350060,33.569588 59.743149,39.292080 60.136238,45.014572 
	C59.985977,46.203285 59.835716,47.391998 59.639931,48.940872 
	C58.336292,48.444431 57.357395,48.071651 56.161713,47.437424 
z"/>
<path fill="#AF304B" opacity="1.000000" stroke="none" 
	d="
M56.441669,18.957321 
	C54.769318,17.400261 53.240368,16.216665 52.101650,14.733470 
	C50.971989,13.262074 50.235298,11.488974 49.188869,9.600202 
	C55.023327,9.007106 60.100212,14.432081 58.585072,18.870331 
	C58.487885,19.155012 57.388966,19.097723 56.441669,18.957321 
z"/>
<path fill="#BDC4C8" opacity="1.000000" stroke="none" 
	d="
M52.827061,37.949196 
	C52.879307,39.704578 52.931549,41.459961 52.901253,43.647270 
	C52.127235,44.929970 51.192230,45.679489 50.788692,46.649990 
	C49.429611,49.918556 47.410748,50.718437 44.183197,48.482853 
	C48.467499,46.539070 49.597641,42.548725 51.100906,38.211464 
	C51.998363,37.942879 52.412712,37.946037 52.827061,37.949196 
z"/>
<path fill="#756F77" opacity="1.000000" stroke="none" 
	d="
M80.066803,28.578503 
	C82.480606,28.672029 84.583336,29.047699 86.767586,29.782654 
	C84.881676,30.141937 82.914246,30.141937 80.055527,30.141937 
	C80.055527,37.445251 80.055527,44.669468 80.027092,52.345047 
	C79.917679,44.817814 79.836708,36.839230 80.066803,28.578503 
z"/>
<path fill="#747577" opacity="1.000000" stroke="none" 
	d="
M70.933334,24.634003 
	C67.893066,24.717010 67.993301,26.738054 67.950920,28.858469 
	C67.828934,34.961555 67.593735,41.062382 67.203934,47.524307 
	C66.067245,47.472141 65.129654,47.059753 64.018394,46.388252 
	C66.648285,46.435699 67.019821,44.784966 66.974022,42.504955 
	C66.878662,37.757786 66.805115,33.000809 67.021194,28.261475 
	C67.105164,26.419659 67.995544,24.614609 69.001305,22.438232 
	C69.955772,22.104202 70.427521,22.124748 70.899269,22.145294 
	C70.913223,22.856365 70.927185,23.567434 70.933334,24.634003 
z"/>
<path fill="#F3F6FA" opacity="1.000000" stroke="none" 
	d="
M60.373379,45.004433 
	C59.743149,39.292080 59.350060,33.569588 59.173897,27.247990 
	C60.088413,26.527761 60.786011,26.406635 61.483604,26.285507 
	C61.324551,32.203609 61.165501,38.121712 61.045471,44.503799 
	C61.084496,44.967785 60.610519,44.994293 60.373379,45.004433 
z"/>
<path fill="#C3C9D0" opacity="1.000000" stroke="none" 
	d="
M68.258156,17.013664 
	C67.665321,16.016344 67.288727,14.782705 66.953979,13.145535 
	C67.488678,14.087117 67.981537,15.432233 68.258156,17.013664 
z"/>
<path fill="#C3C9D0" opacity="1.000000" stroke="none" 
	d="
M70.874222,21.813786 
	C70.427521,22.124748 69.955772,22.104202 69.124840,22.084641 
	C68.492111,21.500481 68.218567,20.915337 68.053719,20.005417 
	C69.058006,20.281185 69.953583,20.881731 70.874222,21.813786 
z"/>
<path fill="#A03A49" opacity="1.000000" stroke="none" 
	d="
M59.953224,11.342815 
	C60.475182,11.874566 61.056068,12.732315 61.440132,13.802483 
	C60.832924,13.232872 60.422539,12.450843 59.953224,11.342815 
z"/>
<path fill="#B3B9BD" opacity="1.000000" stroke="none" 
	d="
M99.893112,42.486687 
	C101.219971,39.952721 102.624741,37.775055 104.423752,35.283348 
	C105.878517,37.352905 106.939026,39.736511 107.999542,42.120113 
	C107.999542,42.120113 107.982666,42.562843 107.916229,42.773407 
	C106.700462,43.378883 105.532082,44.137878 104.406487,44.078995 
	C102.910538,44.000748 101.447945,43.284897 99.893112,42.486687 
z"/>
<path fill="#FCFCFB" opacity="1.000000" stroke="none" 
	d="
M94.128426,39.295082 
	C94.305183,39.217873 94.608925,39.345009 94.997940,39.718575 
	C94.756546,39.899967 94.480621,39.744770 94.128426,39.295082 
z"/>
<path fill="#B3B7B9" opacity="1.000000" stroke="none" 
	d="
M125.848511,39.629097 
	C122.565475,39.146500 118.324554,41.824242 114.759415,36.356392 
	C119.542946,35.942188 123.517471,35.639687 127.481339,35.233234 
	C128.958282,35.081791 130.410309,34.687351 131.873703,34.403709 
	C131.480499,33.247910 131.022079,32.109337 130.711075,30.931822 
	C130.345779,29.548754 130.108521,28.131865 129.731506,26.326233 
	C133.277573,26.326233 136.350128,26.326233 139.745682,26.326233 
	C139.745682,27.776615 139.745682,29.193619 139.423431,30.863293 
	C137.488998,30.173073 135.876816,29.230181 134.264633,28.287289 
	C133.820328,28.749458 133.376022,29.211628 132.931717,29.673798 
	C133.576813,32.477318 134.221893,35.280842 134.897232,38.215809 
	C130.854507,38.215809 127.045547,38.215809 122.396324,38.215809 
	C124.006279,38.763649 124.847931,39.050049 125.848511,39.629097 
z"/>
<path fill="#C22645" opacity="1.000000" stroke="none" 
	d="
M117.184265,53.455429 
	C116.981773,52.909901 117.006439,52.681278 117.377266,52.178696 
	C118.137077,51.898617 118.550743,51.892498 119.365967,51.924934 
	C123.499115,50.299301 127.230705,48.635105 130.962296,46.970913 
	C132.254501,45.867283 133.546707,44.763653 135.651474,42.966042 
	C135.828735,45.743416 135.935379,47.414246 136.111542,49.484421 
	C134.133652,53.097721 126.017639,55.832848 121.593422,54.792629 
	C120.196671,54.464226 118.805267,54.113068 117.184265,53.455429 
z"/>
<path fill="#B4B8BB" opacity="1.000000" stroke="none" 
	d="
M118.964401,51.886379 
	C118.550743,51.892498 118.137077,51.898617 117.418457,51.836239 
	C116.127808,50.187771 115.142120,48.607796 114.156433,47.027824 
	C116.061646,46.344307 118.026436,45.789814 119.856941,44.944519 
	C122.129395,43.895142 126.461525,45.874496 126.097717,40.412930 
	C126.764221,41.320724 127.444756,42.649837 128.528137,44.418568 
	C127.595695,45.596992 126.299026,46.419712 124.916580,47.056046 
	C122.507065,48.165123 118.462189,47.198978 118.964401,51.886379 
z"/>
<path fill="#ECEEED" opacity="1.000000" stroke="none" 
	d="
M119.365967,51.924934 
	C118.462189,47.198978 122.507065,48.165123 124.916580,47.056046 
	C126.299026,46.419712 127.595695,45.596992 128.873199,44.465321 
	C129.364487,44.910679 129.913559,45.748898 130.712463,46.779015 
	C127.230705,48.635105 123.499115,50.299301 119.365967,51.924934 
z"/>
<path fill="#B6B7B4" opacity="1.000000" stroke="none" 
	d="
M143.234711,35.190777 
	C146.395401,34.320076 149.879944,33.634190 153.886414,32.845570 
	C153.356506,34.867771 152.995346,36.246006 152.348877,37.842339 
	C150.467972,37.942921 148.792786,38.086140 147.300278,37.630722 
	C145.949448,37.218536 144.797958,36.153027 143.234711,35.190777 
z"/>
<path fill="#BEC1C3" opacity="1.000000" stroke="none" 
	d="
M143.763046,52.218918 
	C143.964096,52.569675 143.905334,52.999142 143.810104,53.752434 
	C143.683517,53.483379 143.593384,52.890507 143.763046,52.218918 
z"/>
<path fill="#B4BCBE" opacity="1.000000" stroke="none" 
	d="
M161.312103,29.217886 
	C161.308563,29.064659 161.541626,28.860834 161.886627,28.822914 
	C161.998566,28.988819 161.548721,29.167286 161.312103,29.217886 
z"/>
<path fill="#B4BCBE" opacity="1.000000" stroke="none" 
	d="
M156.219467,26.224911 
	C157.710358,25.631376 159.449951,25.323614 161.594269,25.005131 
	C160.155380,25.499832 158.311783,26.005259 156.219467,26.224911 
z"/>
<path fill="#B4BCBE" opacity="1.000000" stroke="none" 
	d="
M147.062790,28.525173 
	C146.441696,28.169830 145.856308,27.532187 145.270905,26.894547 
	C146.263596,26.617092 147.256302,26.339636 148.604706,26.132238 
	C148.339767,26.882488 147.719131,27.562681 147.062790,28.525173 
z"/>
<path fill="#F1F4F1" opacity="1.000000" stroke="none" 
	d="
M108.372208,42.076134 
	C106.939026,39.736511 105.878517,37.352905 104.482315,34.899040 
	C103.215729,33.444977 102.284821,32.061176 101.210800,30.390198 
	C105.649887,30.087957 110.232079,30.072891 114.892921,30.451523 
	C108.307945,33.268032 108.298950,33.401035 110.538551,39.355286 
	C110.758469,39.939968 109.380943,41.125504 108.372208,42.076134 
z"/>
<path fill="#B4B8B7" opacity="1.000000" stroke="none" 
	d="
M61.625576,26.059128 
	C60.786011,26.406635 60.088413,26.527761 59.182716,26.822266 
	C58.461494,27.268732 57.948383,27.541819 57.165848,27.927273 
	C55.884995,28.025385 54.873569,28.011133 53.119774,27.842472 
	C49.937645,27.817072 47.497890,27.946083 45.058132,28.075094 
	C42.117702,26.343872 39.571629,26.453207 36.038517,27.583473 
	C31.699236,28.971638 26.596745,27.974075 21.410633,28.070509 
	C18.115383,27.350412 15.233675,26.567616 12.684813,25.405071 
	C29.312941,25.122185 45.608223,25.219044 61.903503,25.315905 
	C61.858185,25.488188 61.812866,25.660469 61.625576,26.059128 
z"/>
<path fill="#704A52" opacity="1.000000" stroke="none" 
	d="
M61.938229,24.985350 
	C45.608223,25.219044 29.312941,25.122185 12.559748,25.064735 
	C13.793410,24.743725 15.483143,24.080677 17.176851,24.070366 
	C31.804043,23.981327 46.431950,24.009861 61.527817,23.996899 
	C61.988316,24.211895 61.980637,24.433346 61.938229,24.985350 
z"/>
<path fill="#B1B9BA" opacity="1.000000" stroke="none" 
	d="
M11.412066,43.376976 
	C9.745445,43.352955 8.389562,43.101112 6.385957,42.728962 
	C10.280044,37.029079 14.928682,37.992455 19.388662,38.242500 
	C19.575209,38.711468 19.761757,39.180435 19.948303,39.649403 
	C17.206470,40.815987 14.464636,41.982567 11.412066,43.376976 
z"/>
<path fill="#BA2A48" opacity="1.000000" stroke="none" 
	d="
M24.527351,45.004730 
	C24.033855,45.580452 23.193497,46.162930 22.125111,46.487190 
	C22.658218,45.823143 23.419353,45.417316 24.527351,45.004730 
z"/>
<path fill="#E7EEF1" opacity="1.000000" stroke="none" 
	d="
M45.213821,28.364342 
	C47.497890,27.946083 49.937645,27.817072 52.740284,27.854595 
	C53.050903,31.032608 52.998638,34.044086 52.886719,37.502380 
	C52.412712,37.946037 51.998363,37.942879 51.277580,37.882133 
	C49.103935,34.767563 47.236725,31.710575 45.213821,28.364342 
z"/>
<path fill="#B0B8B5" opacity="1.000000" stroke="none" 
	d="
M119.251480,26.388884 
	C120.634872,26.275274 122.239052,26.377802 123.843224,26.480330 
	C123.876076,27.039545 123.908920,27.598759 123.941765,28.157972 
	C122.557770,28.398312 121.173775,28.638653 119.385315,28.857067 
	C119.950523,28.437550 120.920181,28.039957 122.291565,27.477644 
	C121.199181,27.139532 120.335724,26.872278 119.251480,26.388884 
z"/>
<path fill="#B0B8B5" opacity="1.000000" stroke="none" 
	d="
M81.271027,26.374886 
	C82.403488,26.104345 83.778442,26.070168 85.560577,26.106422 
	C84.483017,26.321650 82.998260,26.466450 81.271027,26.374886 
z"/>
<path fill="#B0B8B5" opacity="1.000000" stroke="none" 
	d="
M99.106171,26.313641 
	C99.173370,26.143881 99.336639,26.110220 99.745087,26.125782 
	C99.990257,26.175003 99.651367,26.518778 99.651367,26.518778 
	C99.651367,26.518778 99.202232,26.449739 99.106171,26.313641 
z"/>
</svg>